<svg width="40" height="40" viewBox="0 0 40 40" fill="none" xmlns="http://www.w3.org/2000/svg">
<path d="M20.9715 38.7075C12.1866 38.7075 5.36211 34.5805 3.16047 27.9372L2.66663 26.4509L4.11052 25.7755C4.2632 25.7027 8.05103 23.8424 7.81541 20.1844C7.56659 16.3228 4.36214 14.5104 4.22548 14.4358L2.81743 13.6581L3.42532 12.1903C6.30648 5.39028 12.8671 1.33331 20.9724 1.33331C27.3427 1.33331 32.9259 3.76675 36.2868 8.00892L37.135 9.08144L30.4378 17.8892L28.943 16.4785C28.9138 16.4518 25.7301 13.5143 22.0346 13.4978C18.4739 13.4812 17.0706 14.7905 17.0121 14.8467L14.3741 12.3736C14.6154 12.1221 16.8764 9.88952 22.0506 9.9273C25.3474 9.94204 28.1956 11.4799 29.876 12.6436L32.5027 9.18925C29.779 6.45266 25.6566 4.90562 20.9734 4.90562C14.9255 4.90562 9.95859 7.64128 7.41389 12.2926C8.95202 13.5521 11.2093 16.0464 11.4638 19.9596C11.7361 24.1889 8.96429 26.8481 7.16133 28.1178C9.2951 32.4788 14.4439 35.1324 20.9743 35.1324C25.4973 35.1324 30.1267 33.414 32.9853 30.7576L29.9986 27.1042C28.4086 28.2034 25.6914 29.6316 22.1383 29.8122C17.0932 30.0656 14.1102 27.7999 13.9858 27.7031L16.2544 24.9039C16.3241 24.9536 18.3504 26.4297 21.9479 26.2445C26.206 26.0308 28.9373 23.3614 28.9628 23.3329L30.4076 21.8964L31.6997 23.4637L37.7363 30.8525L36.8108 31.9683C33.4151 36.0621 27.2003 38.7075 20.9715 38.7075Z" fill="url(#paint0_linear_7_5)"/>
<defs>
<linearGradient id="paint0_linear_7_5" x1="36.216" y1="7.23125" x2="7.15686" y2="33.2531" gradientUnits="userSpaceOnUse">
<stop offset="0.0733" stop-color="#F46881"/>
<stop offset="0.083" stop-color="#F36682"/>
<stop offset="0.2596" stop-color="#E74596"/>
<stop offset="0.407" stop-color="#E031A2"/>
<stop offset="0.5065" stop-color="#DD2AA6"/>
<stop offset="0.8882" stop-color="#5210E2"/>
</linearGradient>
</defs>
</svg>
