<svg width="27" height="29" viewBox="0 0 27 29" fill="none" xmlns="http://www.w3.org/2000/svg">
<path d="M14.3954 28.0307C7.80675 28.0307 2.68836 24.9354 1.03713 19.9529L0.666748 18.8382L1.74967 18.3317C1.86418 18.2771 4.70505 16.8818 4.52834 14.1383C4.34172 11.2421 1.93838 9.8828 1.83589 9.82683L0.779849 9.24358L1.23577 8.14272C3.39664 3.04272 8.3171 0 14.3961 0C19.1738 0 23.3612 1.82508 25.8819 5.00671L26.5181 5.8111L21.4951 12.4169L20.374 11.3589C20.3521 11.3389 17.9643 9.13577 15.1927 9.12333C12.5222 9.11089 11.4697 10.0929 11.4259 10.135L9.44737 8.28024C9.62833 8.09159 11.3241 6.41715 15.2048 6.44549C17.6774 6.45654 19.8135 7.60992 21.0738 8.48272L23.0438 5.89195C21.001 3.83951 17.9092 2.67923 14.3968 2.67923C9.86089 2.67923 6.13572 4.73098 4.2272 8.21943C5.3808 9.16411 7.07374 11.0348 7.26459 13.9697C7.46888 17.1417 5.39 19.1361 4.03777 20.0883C5.63811 23.3591 9.49968 25.3493 14.3975 25.3493C17.7897 25.3493 21.2618 24.0605 23.4058 22.0682L21.1657 19.3282C19.9732 20.1526 17.9354 21.2237 15.2705 21.3592C11.4867 21.5492 9.24945 19.8499 9.15615 19.7774L10.8576 17.6779C10.9099 17.7152 12.4296 18.8223 15.1277 18.6834C18.3213 18.5231 20.3698 16.5211 20.3889 16.4997L21.4725 15.4223L22.4416 16.5978L26.969 22.1394L26.2749 22.9763C23.7281 26.0466 19.067 28.0307 14.3954 28.0307Z" fill="url(#paint0_linear_24_21)"/>
<defs>
<linearGradient id="paint0_linear_24_21" x1="25.8288" y1="4.42346" x2="4.03442" y2="23.9399" gradientUnits="userSpaceOnUse">
<stop offset="0.0733" stop-color="#F46881"/>
<stop offset="0.083" stop-color="#F36682"/>
<stop offset="0.2596" stop-color="#E74596"/>
<stop offset="0.407" stop-color="#E031A2"/>
<stop offset="0.5065" stop-color="#DD2AA6"/>
<stop offset="0.8882" stop-color="#5210E2"/>
</linearGradient>
</defs>
</svg>
